
<?xml version="1.0" encoding="utf-8"?><svg xmlns="http://www.w3.org/2000/svg" xmlns:xlink="http://www.w3.org/1999/xlink"><symbol viewBox="0 0 480 480" id="accounting" xmlns="http://www.w3.org/2000/svg"><path d="M472 0H304a39.854 39.854 0 0 0-32 16.246A39.854 39.854 0 0 0 240 0H72a8 8 0 0 0-8 8v136h16V16h160c13.254 0 24 10.746 24 24v256a38.943 38.943 0 0 0-4-2.648l-8 13.855a23.998 23.998 0 0 1 10.398 12.8H256v16h216a8 8 0 0 0 8-8V8a8 8 0 0 0-8-8zM304 16h160v272H304a39.84 39.84 0 0 0-24 8V40c0-13.254 10.746-24 24-24zm160 304H281.473A24.003 24.003 0 0 1 304 304h160zm-8 80h-8v-24a8 8 0 0 0-8-8h-72v16h64v16H288a8.061 8.061 0 0 0-4.441 1.344l-24 16a8.003 8.003 0 0 0 0 13.312l24 16A8.061 8.061 0 0 0 288 448h168c13.254 0 24-10.746 24-24s-10.746-24-24-24zm-177.602 24l12-8H432v16H290.398zM456 432h-8v-16h8a8 8 0 0 1 0 16zm0 0"/><path d="M32 480h176c17.672 0 32-14.328 32-32V192c0-17.672-14.328-32-32-32H32c-17.672 0-32 14.328-32 32v256c0 17.672 14.328 32 32 32zM16 192c0-8.836 7.164-16 16-16h176c8.836 0 16 7.164 16 16v256c0 8.836-7.164 16-16 16H32c-8.836 0-16-7.164-16-16zm0 0"/><path d="M40 256h160a8 8 0 0 0 8-8v-48a8 8 0 0 0-8-8H40a8 8 0 0 0-8 8v48a8 8 0 0 0 8 8zm8-48h144v32H48zm-8 112h32a8 8 0 0 0 8-8v-32a8 8 0 0 0-8-8H40a8 8 0 0 0-8 8v32a8 8 0 0 0 8 8zm8-32h16v16H48zm88-16h-32a8 8 0 0 0-8 8v32a8 8 0 0 0 8 8h32a8 8 0 0 0 8-8v-32a8 8 0 0 0-8-8zm-8 32h-16v-16h16zm72-32h-32a8 8 0 0 0-8 8v32a8 8 0 0 0 8 8h32a8 8 0 0 0 8-8v-32a8 8 0 0 0-8-8zm-8 32h-16v-16h16zM40 384h32a8 8 0 0 0 8-8v-32a8 8 0 0 0-8-8H40a8 8 0 0 0-8 8v32a8 8 0 0 0 8 8zm8-32h16v16H48zm88-16h-32a8 8 0 0 0-8 8v32a8 8 0 0 0 8 8h32a8 8 0 0 0 8-8v-32a8 8 0 0 0-8-8zm-8 32h-16v-16h16zm72-32h-32a8 8 0 0 0-8 8v96a8 8 0 0 0 8 8h32a8 8 0 0 0 8-8v-96a8 8 0 0 0-8-8zm-8 96h-16v-80h16zM40 448h32a8 8 0 0 0 8-8v-32a8 8 0 0 0-8-8H40a8 8 0 0 0-8 8v32a8 8 0 0 0 8 8zm8-32h16v16H48zm88-16h-32a8 8 0 0 0-8 8v32a8 8 0 0 0 8 8h32a8 8 0 0 0 8-8v-32a8 8 0 0 0-8-8zm-8 32h-16v-16h16zm176-264h88v16h-88zm104 0h32v16h-32zM304 48h136v16H304zm0 40h88v16h-88zm104 0h32v16h-32zm-104 40h88v16h-88zm104 0h32v16h-32zm-104 80h88v16h-88zm104 0h32v16h-32zm-104 40h88v16h-88zm104 0h32v16h-32zM104 48h136v16H104zm0 40h88v16h-88zm104 0h32v16h-32zm-104 40h88v16h-88zm104 0h32v16h-32zm0 0"/></symbol><symbol viewBox="0 0 512 512" id="instagram" xmlns="http://www.w3.org/2000/svg"><path d="M352 0H160C71.648 0 0 71.648 0 160v192c0 88.352 71.648 160 160 160h192c88.352 0 160-71.648 160-160V160C512 71.648 440.352 0 352 0zm112 352c0 61.76-50.24 112-112 112H160c-61.76 0-112-50.24-112-112V160C48 98.24 98.24 48 160 48h192c61.76 0 112 50.24 112 112v192z"/><path d="M256 128c-70.688 0-128 57.312-128 128s57.312 128 128 128 128-57.312 128-128-57.312-128-128-128zm0 208c-44.096 0-80-35.904-80-80 0-44.128 35.904-80 80-80s80 35.872 80 80c0 44.096-35.904 80-80 80z"/><circle cx="393.6" cy="118.4" r="17.056"/></symbol><symbol viewBox="0 0 490.282 490.282" id="paper-plane" xmlns="http://www.w3.org/2000/svg"><path d="M.043 245.197c.6 10.1 7.3 18.6 17 21.5l179.6 54.3 6.6 123.8c.3 4.9 3.6 9.2 8.3 10.8 1.3.5 2.7.7 4 .7 3.5 0 6.8-1.4 9.2-4.1l63.5-70.3 90 62.3c4 2.8 8.7 4.3 13.6 4.3 11.3 0 21.1-8 23.5-19.2l74.7-380.7c.9-4.4-.8-9-4.2-11.8-3.5-2.9-8.2-3.6-12.4-1.9l-459 186.8c-9.3 4.2-15 13.4-14.4 23.5zm226 168.9l-4.1-78.1 46 31.8-41.9 46.3zm165.4 9.5l-163.8-113.4 229.7-222.2-65.9 335.6zm40.7-345.4l-227.1 219.7-179.4-54.2 406.5-165.5z"/></symbol><symbol viewBox="0 0 29.731 29.731" id="phone-call" xmlns="http://www.w3.org/2000/svg"><path d="M23.895 29.731c-1.237 0-2.731-.31-4.374-.93-3.602-1.358-7.521-4.042-11.035-7.556C4.971 17.73 2.287 13.81.928 10.208-.307 6.933-.31 4.245.921 3.015c.177-.177.357-.367.543-.563C2.587 1.271 3.856-.058 5.538.002 6.697.05 7.82.77 8.97 2.201c3.398 4.226 1.866 5.732.093 7.478l-.313.31c-.29.29-.838 1.633 4.26 6.731 1.664 1.664 3.083 2.882 4.217 3.619.714.464 1.991 1.166 2.515.642l.315-.318c1.744-1.769 3.25-3.296 7.473.099 1.431 1.15 2.15 2.272 2.198 3.433.069 1.681-1.27 2.953-2.452 4.075-.195.186-.385.366-.562.542-.611.612-1.588.919-2.819.919zM5.418 1C4.223 1 3.144 2.136 2.189 3.141c-.192.202-.378.398-.561.581-.917.916-.824 3.323.236 6.134 1.31 3.472 3.913 7.266 7.33 10.683 3.416 3.415 7.208 6.018 10.681 7.327 2.811 1.062 5.218 1.152 6.133.237.183-.183.379-.369.581-.56 1.027-.976 2.192-2.082 2.141-3.309-.035-.843-.649-1.75-1.825-2.695-3.519-2.83-4.503-1.831-6.135-.176l-.32.323c-.78.781-2.047.608-3.767-.51-1.193-.776-2.667-2.038-4.379-3.751-4.231-4.23-5.584-6.819-4.26-8.146l.319-.315c1.659-1.632 2.66-2.617-.171-6.138-.947-1.175-1.853-1.789-2.696-1.825L5.418 1z"/></symbol><symbol viewBox="0 0 482.6 482.6" id="telephone" xmlns="http://www.w3.org/2000/svg"><path d="M98.339 320.8c47.6 56.9 104.9 101.7 170.3 133.4 24.9 11.8 58.2 25.8 95.3 28.2 2.3.1 4.5.2 6.8.2 24.9 0 44.9-8.6 61.2-26.3.1-.1.3-.3.4-.5 5.8-7 12.4-13.3 19.3-20 4.7-4.5 9.5-9.2 14.1-14 21.3-22.2 21.3-50.4-.2-71.9l-60.1-60.1c-10.2-10.6-22.4-16.2-35.2-16.2-12.8 0-25.1 5.6-35.6 16.1l-35.8 35.8c-3.3-1.9-6.7-3.6-9.9-5.2-4-2-7.7-3.9-11-6-32.6-20.7-62.2-47.7-90.5-82.4-14.3-18.1-23.9-33.3-30.6-48.8 9.4-8.5 18.2-17.4 26.7-26.1 3-3.1 6.1-6.2 9.2-9.3 10.8-10.8 16.6-23.3 16.6-36s-5.7-25.2-16.6-36l-29.8-29.8c-3.5-3.5-6.8-6.9-10.2-10.4-6.6-6.8-13.5-13.8-20.3-20.1-10.3-10.1-22.4-15.4-35.2-15.4-12.7 0-24.9 5.3-35.6 15.5l-37.4 37.4c-13.6 13.6-21.3 30.1-22.9 49.2-1.9 23.9 2.5 49.3 13.9 80 17.5 47.5 43.9 91.6 83.1 138.7zm-72.6-216.6c1.2-13.3 6.3-24.4 15.9-34l37.2-37.2c5.8-5.6 12.2-8.5 18.4-8.5 6.1 0 12.3 2.9 18 8.7 6.7 6.2 13 12.7 19.8 19.6 3.4 3.5 6.9 7 10.4 10.6l29.8 29.8c6.2 6.2 9.4 12.5 9.4 18.7s-3.2 12.5-9.4 18.7c-3.1 3.1-6.2 6.3-9.3 9.4-9.3 9.4-18 18.3-27.6 26.8l-.5.5c-8.3 8.3-7 16.2-5 22.2.1.3.2.5.3.8 7.7 18.5 18.4 36.1 35.1 57.1 30 37 61.6 65.7 96.4 87.8 4.3 2.8 8.9 5 13.2 7.2 4 2 7.7 3.9 11 6 .4.2.7.4 1.1.6 3.3 1.7 6.5 2.5 9.7 2.5 8 0 13.2-5.1 14.9-6.8l37.4-37.4c5.8-5.8 12.1-8.9 18.3-8.9 7.6 0 13.8 4.7 17.7 8.9l60.3 60.2c12 12 11.9 25-.3 37.7-4.2 4.5-8.6 8.8-13.3 13.3-7 6.8-14.3 13.8-20.9 21.7-11.5 12.4-25.2 18.2-42.9 18.2-1.7 0-3.5-.1-5.2-.2-32.8-2.1-63.3-14.9-86.2-25.8-62.2-30.1-116.8-72.8-162.1-127-37.3-44.9-62.4-86.7-79-131.5-10.3-27.5-14.2-49.6-12.6-69.7z"/></symbol><symbol viewBox="0 0 488.9 488.9" id="user" xmlns="http://www.w3.org/2000/svg"><path d="M477.7 454.8v-26c0-26.5-12.4-52-33.1-68.1-48.2-37.4-97.3-63.5-114.5-72.2v-29.7c3.5-7.8 6.4-16.3 8.6-25.5 12.8-4.6 19.8-23.4 24.5-40 6.3-22.1 5.6-37.6-1.8-46.2 7.8-42.5 4.3-73.8-10.3-93.1-7.7-10.1-16.7-14.4-22.7-16.3-4.3-6-13-16.1-27.7-24.2C285.5 4.5 268.4 0 249.6 0c-3.4 0-6.8.2-9.8.4-8.4.4-16.7 2-24.9 4.7-.1 0-.2.1-.3.1-9 3.1-17.8 7.6-26.3 13.4-9.7 6.2-18.6 13.6-26.3 21.8-15.1 15.5-25.1 33-29.4 51.7-4.1 15.5-4.4 31.1-1 46.4-1.8 1.3-3.4 2.8-4.8 4.6-6.9 9.1-7.2 23.4-1.1 45.1 4.2 15 9.8 30.3 19.3 37.2 2.8 14.4 7.5 27.5 13.8 39.1v24.1c-17.2 8.7-66.3 34.7-114.5 72.2-20.7 16.1-33.1 41.5-33.1 68.1v26c0 18.8 15.3 34 34 34h398.5c18.7 0 34-15.3 34-34.1zm-442.1 0v-26c0-19 8.8-37.2 23.6-48.7 52-40.3 104.9-66.9 115-71.8 5.6-2.7 9.1-8.3 9.1-14.6v-32.5c0-2.2-.6-4.3-1.7-6.2-6.6-11.2-11.2-24.6-13.5-39.9-.8-4.9-4.4-8.8-9.1-10-1.3-1.5-5-6.9-9.7-23.6-3.9-13.8-3.6-20.2-3.2-22.5 3.9.2 7.8-1.6 10.3-4.7 2.6-3.3 3.3-7.7 1.9-11.6-5.2-14.5-5.8-29.4-1.8-44.6 3.4-14.6 11.2-28.2 23.3-40.6 6.5-7 14-13.1 22-18.2.1-.1.3-.2.4-.3 6.7-4.7 13.7-8.2 20.6-10.6.1 0 .2-.1.2-.1 5.9-2 12-3.1 18.4-3.4 17.5-1.5 33.2 1.8 47.1 9.9 15.2 8.4 21.4 19.4 21.4 19.4 1.9 3.9 5.3 6.2 9.7 6.5.3 0 6.8 1 12.4 8.9 5.9 8.4 14.3 30 3.8 80.4-1.2 5.6 1.7 11.2 6.8 13.6.5 1.8 1.3 7.9-3 23.1-3.8 13.4-6.9 19.5-8.7 22.2-2.3-.4-4.7-.2-6.9.8-3.8 1.6-6.6 5.1-7.3 9.1-2.1 12-5.5 22.8-9.9 32-.8 1.7-1.2 3.5-1.2 5.3v37.6c0 6.3 3.5 11.8 9.1 14.6 10.1 4.9 63 31.6 114.9 71.8 14.8 11.5 23.6 29.7 23.6 48.7v26c0 5.2-4.3 9.5-9.5 9.5H45.2c-5.3.1-9.6-4.2-9.6-9.5z"/></symbol></svg>